<svg xmlns="http://www.w3.org/2000/svg" width="30.853" height="29.411" viewBox="0 0 30.853 29.411">
  <g id="color-palette" transform="translate(-0.5 499.83)">
    <path id="Path_351" data-name="Path 351" d="M13.805-499.8a14.825,14.825,0,0,0-7.832,3.2,14.754,14.754,0,0,0-5.364,9.425,19.43,19.43,0,0,0,0,4.1,15.012,15.012,0,0,0,3.047,7.12A17.337,17.337,0,0,0,6.3-473.368a14.727,14.727,0,0,0,6.6,2.806,19.048,19.048,0,0,0,4.465.024,15.227,15.227,0,0,0,4.164-1.279c2.377-1.134,3.2-2.076,3.2-3.675a3.243,3.243,0,0,0-.887-2.275,3.109,3.109,0,0,0-2.275-1.014,2.022,2.022,0,0,1-1.961-1.207,1.627,1.627,0,0,1-.157-.845,1.513,1.513,0,0,1,.169-.857,2.291,2.291,0,0,1,.471-.615c.29-.259.821-.507.9-.416.247.29,5.286,5.624,5.539,5.865a2.838,2.838,0,0,0,3.928.036,2.8,2.8,0,0,0,.6-3.325c-.217-.459-.374-.621-2.2-2.341l-1.46-1.376.434-.428a5.236,5.236,0,0,0,1.406-2.275A3.774,3.774,0,0,0,29.4-488.1v-1.026l-.247-.724a14.432,14.432,0,0,0-3.343-5.485,14.779,14.779,0,0,0-8.967-4.411A22.5,22.5,0,0,0,13.805-499.8Zm2.661,1.828A12.828,12.828,0,0,1,26.8-490.789a6.051,6.051,0,0,1,.8,2.5,3.186,3.186,0,0,1-1.014,2.637,3.1,3.1,0,0,1-.537.471c-.036,0-1.183-1.056-2.552-2.347l-2.486-2.347v-.893a3.748,3.748,0,0,0-.139-1.352,4.366,4.366,0,0,0-1.424-2.16,15.08,15.08,0,0,0-5.919-1.859c-1.34-.205-1.834-.217-2.064-.048a.94.94,0,0,0-.392.833,30.053,30.053,0,0,0,.833,4.592,6.263,6.263,0,0,0,1.762,3.385,4.535,4.535,0,0,0,3.421,1l.362-.06.531.555c.29.308.772.815,1.074,1.134l.537.585-.265.157a4.209,4.209,0,0,0-1.2,1.255,3.563,3.563,0,0,0-.507,1.768,3.482,3.482,0,0,0,1.1,2.836,3.7,3.7,0,0,0,2.625,1.171,1.689,1.689,0,0,1,.893.229,1.459,1.459,0,0,1,.091,2.4,12.96,12.96,0,0,1-2.239,1.183A12.97,12.97,0,0,1,8.6-474.008a11.6,11.6,0,0,1-2.5-1.961,12.683,12.683,0,0,1-3.771-8.092,12.945,12.945,0,0,1,2.914-9.232,13,13,0,0,1,5.962-4.1A12.9,12.9,0,0,1,16.466-497.969ZM14.053-494.2c2.4.447,3.982.99,4.483,1.539a2.68,2.68,0,0,1-.772,4.194,2.492,2.492,0,0,1-2.13.139,2.451,2.451,0,0,1-1.521-1.521,25.687,25.687,0,0,1-1.062-4.278C13.009-494.4,12.972-494.4,14.053-494.2Zm10.318,9.992c2.269,2.142,4.314,4.067,4.544,4.284.615.573.754.965.525,1.478a.925.925,0,0,1-.881.555.712.712,0,0,1-.567-.121c-.115-.072-2.124-2.172-4.471-4.664l-4.266-4.52.459-.465a4.254,4.254,0,0,1,.495-.459C20.231-488.11,22.1-486.348,24.371-484.206Z" transform="translate(0 0)" fill="#5f6979"/>
    <path id="Path_352" data-name="Path 352" d="M56.869-315.835a3.359,3.359,0,0,0-2.112,2,2.447,2.447,0,0,0-.157,1.165,2.785,2.785,0,0,0,.133,1.116,3.35,3.35,0,0,0,3.138,2.2,3.152,3.152,0,0,0,2.359-.959,3.174,3.174,0,0,0,.971-2.359,4.065,4.065,0,0,0-.091-.845,3.373,3.373,0,0,0-2.383-2.383A3.736,3.736,0,0,0,56.869-315.835Zm1.521,1.732a1.792,1.792,0,0,1,.929.929,1.926,1.926,0,0,1,0,1.014,1.792,1.792,0,0,1-.929.929,1.525,1.525,0,0,1-2.015-1.436A1.525,1.525,0,0,1,58.389-314.1Z" transform="translate(-50.836 -172.751)" fill="#5f6979"/>
    <path id="Path_353" data-name="Path 353" d="M155.082-185.242a3.283,3.283,0,0,0-2.878,3.1,3.11,3.11,0,0,0,.971,2.54,3.11,3.11,0,0,0,2.54.971,3.325,3.325,0,0,0,3.017-2.414,3.85,3.85,0,0,0-.024-1.852A3.343,3.343,0,0,0,155.082-185.242Zm1.056,1.919a1.6,1.6,0,0,1,.76.76,1.946,1.946,0,0,1,.03,1.2A1.584,1.584,0,0,1,155-180.5a1.528,1.528,0,0,1-.887-2.015,1.8,1.8,0,0,1,.809-.833A1.986,1.986,0,0,1,156.138-183.323Z" transform="translate(-142.544 -295.585)" fill="#5f6979"/>
  </g>
</svg>
