<svg xmlns="http://www.w3.org/2000/svg" width="24.486" height="29.453" viewBox="0 0 24.486 29.453">
  <g id="credit-card-_5_" transform="translate(-43.074 511.723)">
    <path id="Path_349" data-name="Path 349" d="M44.526-511.658a2.022,2.022,0,0,0-1.278,1.128l-.15.317-.017,6.671c-.017,7.35-.035,6.976.34,7.54a2,2,0,0,0,1.082.783,5.048,5.048,0,0,0,1.617.115h1.255l.029,2.458c.029,2.642.04,2.786.374,3.632a5.154,5.154,0,0,0,2.325,2.55l.271.132.017,1.755c.017,1.715.023,1.767.144,1.94.276.386.069.368,4.806.368h4.276l.224-.132c.426-.242.437-.305.437-2.239,0-1.387.017-1.715.075-1.715a3.281,3.281,0,0,0,.593-.34,5.089,5.089,0,0,0,2.181-3.114,14.778,14.778,0,0,0,.132-2.861l.023-2.429,1.358-.017a4.336,4.336,0,0,0,1.7-.15A2.226,2.226,0,0,0,67.4-496.3l.155-.334v-13.583l-.19-.386a1.976,1.976,0,0,0-.984-.961l-.322-.15-10.648-.012C46.725-511.727,44.722-511.716,44.526-511.658ZM65.77-509.92c.075.075.092.242.092.95v.858H44.8v-.858c0-.708.017-.875.092-.95s1.105-.092,10.441-.092S65.689-510,65.77-509.92Zm.092,8.207c0,4.265-.006,4.679-.1,4.777s-.2.1-1.283.1h-1.2l-.023-1.629a7.139,7.139,0,0,0-.15-2,3.22,3.22,0,0,0-3.494-2.193,3.239,3.239,0,0,0-2.469,1.951,7.011,7.011,0,0,0-.265,2.59v1.283h-5.94c-5.445,0-5.946-.006-6.043-.1s-.1-.311-.1-4.777v-4.679H65.862Zm-5.14.9a1.913,1.913,0,0,1,.42.334c.4.455.374.127.374,5.318,0,5.163.012,4.979-.363,5.756a3.341,3.341,0,0,1-1.37,1.4l-.414.213H51.289l-.414-.213a3.5,3.5,0,0,1-1.353-1.347c-.363-.737-.368-.777-.391-3.379l-.029-2.371h6.521l-.294.38a5.587,5.587,0,0,0-1.128,3.131c-.029.6-.023.679.086.852a.85.85,0,0,0,1.485-.046,1.18,1.18,0,0,0,.132-.587,4.058,4.058,0,0,1,2.112-3.425c.593-.328.558-.161.593-2.78.035-2.5.029-2.469.4-2.9a1.5,1.5,0,0,1,.691-.443A1.8,1.8,0,0,1,60.722-500.815Zm-2.17,15.782V-484H52.106v-2.072h6.446Z" transform="translate(0 0)" fill="#5f6979"/>
    <path id="Path_350" data-name="Path 350" d="M106.994-382.815c-.512.265-.495.167-.495,2.578,0,2.066.006,2.124.121,2.285a1.348,1.348,0,0,0,.317.276c.19.109.3.115,2.613.115s2.423-.006,2.613-.115a1.348,1.348,0,0,0,.317-.276c.115-.161.121-.219.121-2.285s-.006-2.124-.121-2.285a1.349,1.349,0,0,0-.317-.276c-.184-.109-.317-.115-2.555-.132C107.247-382.947,107.247-382.947,106.994-382.815Zm3.9,2.561-.017.967h-2.648l-.017-.967-.012-.961H110.9Z" transform="translate(-59.774 -121.373)" fill="#5f6979"/>
  </g>
</svg>
