<svg xmlns="http://www.w3.org/2000/svg" width="29.405" height="29.411" viewBox="0 0 29.405 29.411">
  <g id="debug" transform="translate(-32.082 479.904)">
    <path id="Path_362" data-name="Path 362" d="M43.175-479.812a11.614,11.614,0,0,0-4.1,1.254,12.285,12.285,0,0,0-4.709,4.039,15.657,15.657,0,0,0-1.655,3.277A12.609,12.609,0,0,0,35.781-458.4a12.569,12.569,0,0,0,12.937,3.034,13.088,13.088,0,0,0,3.5-1.845c.243-.19.486-.374.539-.4s.236.1.6.46l.512.512-.453.473c-.5.525-.637.834-.565,1.254.046.217.276.479,1.832,2.036,1.885,1.9,2.115,2.075,2.9,2.285a3.165,3.165,0,0,0,3.861-2.594,3.048,3.048,0,0,0-.309-1.865c-.2-.414-.433-.67-2-2.226S57.354-459.04,57.1-459.1c-.453-.1-.736.013-1.281.532l-.473.453-.512-.512c-.374-.374-.5-.545-.46-.611.033-.046.223-.309.427-.584A12.793,12.793,0,0,0,57.17-465.5a17.7,17.7,0,0,0-.026-3.776,13.173,13.173,0,0,0-1.616-4.453,13.928,13.928,0,0,0-3-3.448A12.67,12.67,0,0,0,43.175-479.812Zm3.5,2.2a10.565,10.565,0,0,1,8.334,8.36,12.874,12.874,0,0,1,.033,3.756,10.554,10.554,0,0,1-7.322,8.242,8.575,8.575,0,0,1-3.034.42,7.97,7.97,0,0,1-1.97-.151,10.562,10.562,0,0,1-8.353-8.367,12.147,12.147,0,0,1,0-3.9,10.57,10.57,0,0,1,5-7.1,11.016,11.016,0,0,1,4.111-1.392A13.873,13.873,0,0,1,46.675-477.612Zm12.688,23.72a.984.984,0,0,1-.3.979,1.027,1.027,0,0,1-.965.282c-.21-.039-.447-.236-1.484-1.267l-1.228-1.215.736-.742.742-.742,1.228,1.228C59.127-454.325,59.33-454.095,59.363-453.891Z" fill="#5f6979"/>
    <path id="Path_363" data-name="Path 363" d="M119.227-415.842a3.679,3.679,0,0,0-1.215.578,3.312,3.312,0,0,0-1.4,2.64l.033.355-.4.282a5.082,5.082,0,0,0-.624.525l-.223.23-.217-.19c-.276-.243-.493-.282-1.392-.25-.788.02-.933.079-1.221.473a1.188,1.188,0,0,0,0,1.13,1.044,1.044,0,0,0,1.011.473c.479.026.525.039.716.236.21.217.21.217.23,1.044l.02.821-.742.026c-.8.02-.939.079-1.235.473a1.188,1.188,0,0,0,0,1.13c.309.42.407.453,1.478.473.7.02.979.046.979.1a8.185,8.185,0,0,0,.243.854l.236.768-.177.19c-.164.171-.23.19-.7.217a1.044,1.044,0,0,0-1.011.473,1.188,1.188,0,0,0,0,1.13c.289.394.433.453,1.221.473.9.033,1.116-.007,1.392-.25l.217-.19.348.525c1.018,1.563,2.331,2.272,3.586,1.937a4.368,4.368,0,0,0,2.318-1.924l.355-.539.217.19c.276.243.493.282,1.392.25.788-.02.933-.079,1.221-.473a1.188,1.188,0,0,0,0-1.13,1.044,1.044,0,0,0-1.011-.473c-.466-.026-.532-.046-.7-.217l-.177-.19.236-.768a8.187,8.187,0,0,0,.243-.854c0-.053.282-.079.978-.1,1.07-.02,1.169-.052,1.478-.473a1.188,1.188,0,0,0,0-1.13c-.3-.394-.433-.453-1.235-.473l-.742-.026.02-.821c.02-.827.02-.827.23-1.044.19-.2.236-.21.716-.236a1.044,1.044,0,0,0,1.011-.473,1.188,1.188,0,0,0,0-1.13c-.289-.394-.433-.453-1.221-.473-.9-.033-1.116.007-1.392.25l-.217.19-.223-.23a5.079,5.079,0,0,0-.624-.525l-.4-.282.033-.355a3.465,3.465,0,0,0-1.7-2.857A3.068,3.068,0,0,0,119.227-415.842Zm.841,2.147a1.8,1.8,0,0,1,.67.722c.1.256.033.4-.25.578a1.16,1.16,0,0,1-.742.151,1.061,1.061,0,0,1-.768-.184c-.387-.256-.348-.558.131-1C119.5-413.8,119.739-413.865,120.068-413.694Zm-1.464,3.375a3.653,3.653,0,0,0,2.647-.118l.3-.131.361.21a1.941,1.941,0,0,1,.979,2.154c-.131,2.371-1.412,5.733-2.574,6.751a.719.719,0,0,1-1.116.007c-1.156-1.018-2.436-4.367-2.574-6.725-.053-.979.059-1.386.506-1.819.368-.355.775-.591.919-.532Z" transform="translate(-75.067 -59.82)" fill="#5f6979"/>
  </g>
</svg>
