<svg id="failed" xmlns="http://www.w3.org/2000/svg" width="30" height="30" viewBox="0 0 30 30">
  <path id="Path_762" data-name="Path 762" d="M155.658-356.828a1.069,1.069,0,0,0-.658.973c.005.352.195.584,2.041,2.43l1.82,1.831-1.82,1.825c-1.894,1.9-2.041,2.078-2.041,2.488a1.177,1.177,0,0,0,.321.721,1.2,1.2,0,0,0,.689.279c.4-.005.584-.158,2.478-2.041l1.825-1.82,1.831,1.82c1.9,1.894,2.073,2.041,2.483,2.041a1.043,1.043,0,0,0,.947-.726c.163-.584.11-.652-1.989-2.757l-1.82-1.831,1.841-1.852a12.086,12.086,0,0,0,1.941-2.1.992.992,0,0,0-1.278-1.278,12.088,12.088,0,0,0-2.1,1.941l-1.852,1.841-1.831-1.82c-1.873-1.873-2.078-2.041-2.457-2.036A1.339,1.339,0,0,0,155.658-356.828Z" transform="translate(-145 366.902)" fill="#f5406d"/>
  <path id="Path_2" data-name="Path 2" d="M15,0A15,15,0,1,0,30,15,15.017,15.017,0,0,0,15,0Zm0,27.568A12.568,12.568,0,1,1,27.568,15,12.582,12.582,0,0,1,15,27.568Z" fill="#f5406d"/>
</svg>
