<svg xmlns="http://www.w3.org/2000/svg" width="29.704" height="20.878" viewBox="0 0 29.704 20.878">
  <g id="mail_1_" data-name="mail (1)" transform="translate(0.05 435.888)">
    <path id="Path_348" data-name="Path 348" d="M2.047-435.831a2.662,2.662,0,0,0-2.036,2.077c-.081.429-.081,16.172,0,16.6a2.638,2.638,0,0,0,2.082,2.082c.429.081,24.988.081,25.418,0a2.638,2.638,0,0,0,2.082-2.082c.081-.429.081-16.172,0-16.6a2.638,2.638,0,0,0-2.082-2.082C27.122-435.906,2.424-435.906,2.047-435.831Zm19.513,6.758c-3.48,3.463-5.2,5.139-5.423,5.273a2.592,2.592,0,0,1-2.668,0c-.22-.133-1.943-1.81-5.423-5.273l-5.1-5.075H26.664ZM6.884-427.78l2.32,2.326-2.9,2.906c-1.6,1.6-3.283,3.271-3.753,3.718l-.858.812V-432.89L3.132-431.5C3.92-430.732,5.608-429.056,6.884-427.78ZM27.9-421.73,27.882-418l-3.741-3.73L20.4-425.454l3.741-3.724,3.741-3.724.017,3.724C27.905-427.13,27.905-423.777,27.9-421.73Zm-16.839-1.862a5.76,5.76,0,0,0,2.523,1.746,3.474,3.474,0,0,0,1.218.133,3.638,3.638,0,0,0,2.03-.476,6.479,6.479,0,0,0,1.607-1.311l.708-.7,1.381,1.34c.76.737,2.448,2.407,3.759,3.718l2.378,2.384H14.8L2.94-416.759l3.73-3.706c2.053-2.042,3.747-3.712,3.77-3.712A6.25,6.25,0,0,1,11.061-423.592Z" transform="translate(0)" fill="#5f6979"/>
  </g>
</svg>
