<svg id="tick_4_" data-name="tick (4)" xmlns="http://www.w3.org/2000/svg" width="30" height="30" viewBox="0 0 30 30">
  <g id="Group_2" data-name="Group 2" transform="translate(7.216 9.689)">
    <g id="Group_1" data-name="Group 1">
      <path id="Path_1" data-name="Path 1" d="M138.432,165.743a1.216,1.216,0,0,0-1.719-.045l-7.764,7.363-3.7-3.8a1.216,1.216,0,0,0-1.742,1.7l4.541,4.662a1.217,1.217,0,0,0,1.708.034l8.635-8.189A1.216,1.216,0,0,0,138.432,165.743Z" transform="translate(-123.158 -165.364)" fill="#30cb74"/>
    </g>
  </g>
  <g id="Group_4" data-name="Group 4">
    <g id="Group_3" data-name="Group 3">
      <path id="Path_2" data-name="Path 2" d="M15,0A15,15,0,1,0,30,15,15.017,15.017,0,0,0,15,0Zm0,27.568A12.568,12.568,0,1,1,27.568,15,12.582,12.582,0,0,1,15,27.568Z" fill="#30cb74"/>
    </g>
  </g>
</svg>
