<svg xmlns="http://www.w3.org/2000/svg" width="15" height="15" viewBox="0 0 15.017 17.205">
<g id="upward" transform="translate(-107.096 428)">
	<path id="Path_368" data-name="Path 368" d="M111.1-425.186c-4.11,3.417-3.859,3.2-3.939,3.4a.9.9,0,0,0,.045.769,1.067,1.067,0,0,0,1.347.422c.1-.06,1.246-.98,2.548-2.05s2.382-1.94,2.4-1.94.025,2.934.025,6.522v6.527l.116.221a1.006,1.006,0,0,0,.357.372.867.867,0,0,0,.583.146.867.867,0,0,0,.583-.146,1.007,1.007,0,0,0,.357-.372l.116-.221v-6.527c0-3.588.015-6.522.03-6.522s1.09.874,2.392,1.94,2.447,1.99,2.548,2.05a1.05,1.05,0,0,0,1.352-.4.7.7,0,0,0,.151-.613.864.864,0,0,0-.121-.5c-.055-.075-1.563-1.362-3.346-2.854s-3.331-2.789-3.427-2.879a.521.521,0,0,0-.452-.161h-.271Z" transform="translate(0)" fill="#46bd84"></path>
</g>
</svg>