<svg xmlns="http://www.w3.org/2000/svg" width="30" height="30" viewBox="0 0 30 30">
  <g id="refresh-page-option" transform="translate(9.004 519.656)">
    <path id="Path_22" data-name="Path 22" d="M12.4-511.649a7.388,7.388,0,0,0-1.509.264,6.489,6.489,0,0,0-3.5,2.628,7.182,7.182,0,0,0-.9,2c-.079.295-.072.389.041.484l.079.067h.943c.943,0,.945,0,1.009-.059a2.281,2.281,0,0,0,.231-.446,4.361,4.361,0,0,1,.489-.943,4.267,4.267,0,0,1,1.13-1.089,4.3,4.3,0,0,1,2.715-.717,3.9,3.9,0,0,1,1.586.41,4.578,4.578,0,0,1,1.076.722,6.06,6.06,0,0,1-.62.669c-.666.669-.7.712-.7.914a.562.562,0,0,0,.32.489,10.72,10.72,0,0,0,2.139.049,10.72,10.72,0,0,0,2.139-.049.571.571,0,0,0,.292-.328c.018-.064.028-.779.028-2.1,0-2.249.01-2.108-.2-2.3a.525.525,0,0,0-.61-.067c-.041.023-.33.295-.64.6s-.571.566-.584.566a2.886,2.886,0,0,1-.274-.215,6.68,6.68,0,0,0-3.356-1.514A10.147,10.147,0,0,0,12.4-511.649Z" transform="translate(-6.281 0)" fill="#f7af6f"/>
    <path id="Path_23" data-name="Path 23" d="M.316-212.951a.571.571,0,0,0-.292.328c-.018.064-.028.779-.028,2.09,0,2.213-.01,2.09.174,2.28a.51.51,0,0,0,.62.092,8.055,8.055,0,0,0,.653-.61c.31-.312.576-.566.592-.566a.238.238,0,0,1,.09.067,7.4,7.4,0,0,0,1.3.938,6.962,6.962,0,0,0,2.024.7,6.981,6.981,0,0,0,2.984-.182,6.53,6.53,0,0,0,3.522-2.661,7.5,7.5,0,0,0,.871-1.978c.074-.266.077-.292.041-.374C12.8-213,12.817-213,11.8-213c-.912,0-.914,0-.979.056a2.426,2.426,0,0,0-.231.448,4.36,4.36,0,0,1-.489.943,4.139,4.139,0,0,1-.653.725,4.351,4.351,0,0,1-4.214.884,4.518,4.518,0,0,1-1.473-.812l-.182-.151.64-.643c.661-.666.694-.71.694-.912a.562.562,0,0,0-.32-.489A10.717,10.717,0,0,0,2.455-213,10.717,10.717,0,0,0,.316-212.951Z" transform="translate(0 -291.006)" fill="#f7af6f"/>
    <path id="Path_2" data-name="Path 2" d="M15,0A15,15,0,1,0,30,15,15.017,15.017,0,0,0,15,0Zm0,27.568A12.568,12.568,0,1,1,27.568,15,12.582,12.582,0,0,1,15,27.568Z" transform="translate(-9.004 -519.656)" fill="#f7af6f"/>
  </g>
</svg>
