<svg id="refundicon" xmlns="http://www.w3.org/2000/svg" width="30" height="30" viewBox="0 0 30 30">
  <path id="Path_2" data-name="Path 2" d="M15,0A15,15,0,1,0,30,15,15.017,15.017,0,0,0,15,0Zm0,27.568A12.568,12.568,0,1,1,27.568,15,12.582,12.582,0,0,1,15,27.568Z" fill="#6c6c84"/>
  <path id="Path_21" data-name="Path 21" d="M315.857-199.738a9.362,9.362,0,0,0-1.65,1.484c-.787.78-1.49,1.522-1.567,1.643a1.044,1.044,0,0,0-.141.639,1.044,1.044,0,0,0,.141.639c.077.122.78.863,1.567,1.637,1.247,1.241,1.464,1.432,1.714,1.5a1.269,1.269,0,0,0,1.637-1.03,1.332,1.332,0,0,0-.4-1.145l-.294-.326,1.95.019,1.944.019.486.237a2.458,2.458,0,0,1,1.221,1.253,1.773,1.773,0,0,1,.2,1.036,1.773,1.773,0,0,1-.2,1.036,2.457,2.457,0,0,1-1.221,1.253l-.486.237-3.709.032-3.715.032-.243.153a1.681,1.681,0,0,0-.416.409.994.994,0,0,0-.173.678,1.142,1.142,0,0,0,.563,1.081l.262.173h3.8c4.112,0,3.984.006,4.943-.352a5.353,5.353,0,0,0,2.8-2.8,4.415,4.415,0,0,0,.352-1.931,4.415,4.415,0,0,0-.352-1.931,5.4,5.4,0,0,0-2.8-2.8c-.889-.333-.959-.339-3.133-.371l-2.066-.019.294-.326a1.334,1.334,0,0,0,.217-1.631A1.38,1.38,0,0,0,315.857-199.738Z" transform="translate(-302.56 208.423)" fill="#6c6c84"/>
</svg>
