<svg xmlns="http://www.w3.org/2000/svg" width="22.78" height="19.145" viewBox="0 0 22.78 19.145">
  <g id="settings-_1_" transform="translate(-0.09 471.708)">
    <path id="Path_364" data-name="Path 364" d="M14.817-471.65a4.485,4.485,0,0,0-2.227,1.2,4.126,4.126,0,0,0-1.131,1.759l-.116.334-5.216.022c-5,.022-5.216.027-5.34.107a1.137,1.137,0,0,0-.588.9,1.141,1.141,0,0,0,.655,1.1c.2.094.232.094,5.349.107l5.149.009.1.3a4.517,4.517,0,0,0,1.149,1.8,4.508,4.508,0,0,0,1.969,1.114,3.528,3.528,0,0,0,1.136.1,3.528,3.528,0,0,0,1.136-.1,4.56,4.56,0,0,0,2.94-2.472,4.4,4.4,0,0,0,.218-.552l.049-.183,1.038-.018c1.14-.018,1.252-.04,1.537-.316a.982.982,0,0,0,.338-.811,1.046,1.046,0,0,0-.575-.984c-.116-.076-.254-.089-1.22-.107l-1.091-.022-.16-.423a4,4,0,0,0-.624-1.162,4.516,4.516,0,0,0-2.383-1.626,3.475,3.475,0,0,0-1.091-.134A3.951,3.951,0,0,0,14.817-471.65Zm1.5,2.227a2.121,2.121,0,0,1,.98.592,2.087,2.087,0,0,1,.664,1.586,2.217,2.217,0,0,1-1.189,1.991,2.058,2.058,0,0,1-1.22.249,1.511,1.511,0,0,1-.815-.2,2.2,2.2,0,0,1-1.274-2.04,2.141,2.141,0,0,1,.628-1.559,2.115,2.115,0,0,1,1.6-.681A2.284,2.284,0,0,1,16.314-469.423Z" transform="translate(-0.1)" fill="#006df6"/>
    <path id="Path_365" data-name="Path 365" d="M6.6-242.647a4.943,4.943,0,0,0-2,.891,4.579,4.579,0,0,0-1.514,2.2l-.08.285-1.029.018c-1.162.018-1.287.045-1.586.379a1.1,1.1,0,0,0,.294,1.733c.116.076.254.089,1.238.107l1.109.022.1.29a4.484,4.484,0,0,0,3.835,2.975,4.4,4.4,0,0,0,3.505-1.229,4.516,4.516,0,0,0,1.131-1.746l.1-.29,5.224-.022c5.02-.022,5.233-.027,5.358-.107a1.306,1.306,0,0,0,.481-.494,1.248,1.248,0,0,0,0-.98,1.268,1.268,0,0,0-.57-.543c-.169-.076-.481-.08-5.331-.094s-5.158-.018-5.158-.089a5.086,5.086,0,0,0-.517-1.22,5.316,5.316,0,0,0-1.363-1.407,5.023,5.023,0,0,0-1.363-.6A6.75,6.75,0,0,0,6.6-242.647ZM7.938-240.4a2.063,2.063,0,0,1,1.015.6,2.091,2.091,0,0,1,.664,1.581,2.67,2.67,0,0,1-.062.588A2.277,2.277,0,0,1,6.1-236.344a2.286,2.286,0,0,1-.73-2.944,2.721,2.721,0,0,1,.869-.891A2.364,2.364,0,0,1,7.938-240.4Z" transform="translate(0 -218.826)" fill="#006df6"/>
  </g>
</svg>
