<svg xmlns="http://www.w3.org/2000/svg" width="25.401" height="29.411" viewBox="0 0 25.401 29.411">
  <g id="shield_2_" data-name="shield (2)" transform="translate(-35.043 511.675)">
    <path id="Path_359" data-name="Path 359" d="M47.254-511.573c-.155.063-2.862,1.178-6.006,2.477-3.764,1.552-5.77,2.408-5.874,2.506-.333.31-.356.477-.316,2.328a31.938,31.938,0,0,0,.276,4.006c.92,7.4,4.259,13.339,9.477,16.851,1.575,1.063,2.489,1.322,3.632,1.029a4.906,4.906,0,0,0,1.782-.937,22.7,22.7,0,0,0,6.242-6.828A29.954,29.954,0,0,0,60.444-505.2c0-.9-.063-1.155-.351-1.42-.207-.19-11.977-5.029-12.293-5.052A1.116,1.116,0,0,0,47.254-511.573Zm4.971,3.816,5.288,2.184.891.368.017.247c.029.356-.086,2.3-.19,3.178a25.824,25.824,0,0,1-4.655,12.357,17.858,17.858,0,0,1-1.943,2.264,16.9,16.9,0,0,1-3.374,2.718,1.739,1.739,0,0,1-1.356-.04,17.507,17.507,0,0,1-4.506-3.736,22.66,22.66,0,0,1-4.937-11.357,36.653,36.653,0,0,1-.408-4.943v-.672l.276-.115c.149-.063,2.04-.845,4.207-1.736s4.414-1.828,5-2.069,1.115-.448,1.178-.454S49.812-508.752,52.225-507.757Z" fill="#5f6979"/>
    <path id="Path_360" data-name="Path 360" d="M152.5-425.8a5.011,5.011,0,0,0-3.443,2.741,4.308,4.308,0,0,0-.42,2.213,7.358,7.358,0,0,1-.075,1.109c-.144,0-.707.621-.874.966l-.19.385v7.242l.155.333a2.68,2.68,0,0,0,1.109,1.109l.345.167h8.851l.385-.19a2.554,2.554,0,0,0,1.149-1.2l.132-.333v-3.477c0-3.2-.006-3.5-.1-3.776a2.531,2.531,0,0,0-.776-1.069l-.224-.161-.035-.989a5.607,5.607,0,0,0-.437-2.3,4.968,4.968,0,0,0-3.466-2.759A6.686,6.686,0,0,0,152.5-425.8Zm1.839,2.012a2.753,2.753,0,0,1,1.282.759,3.208,3.208,0,0,1,.862,2.575l-.017.4-2.914.017-2.92.012v-.7a2.857,2.857,0,0,1,.77-2.253A3.075,3.075,0,0,1,154.339-423.785Zm3.236,5.845c.092.092.1,6.144.011,6.316-.057.1-.167.109-4.012.109a36.887,36.887,0,0,1-4.023-.069,24,24,0,0,1-.069-3.207c0-1.73.017-3.161.04-3.178s1.822-.04,4.012-.04A37.223,37.223,0,0,1,157.575-417.94Z" transform="translate(-105.993 -80.868)" fill="#5f6979"/>
    <path id="Path_361" data-name="Path 361" d="M231.752-268.844a1.253,1.253,0,0,0-.351,2.012l.149.138v1.879h1.494v-1.839l.2-.253a1.243,1.243,0,0,0-.385-1.9A1.3,1.3,0,0,0,231.752-268.844Z" transform="translate(-184.728 -228.775)" fill="#5f6979"/>
  </g>
</svg>
