<svg xmlns="http://www.w3.org/2000/svg" width="25.462" height="29.411" viewBox="0 0 25.462 29.411">
  <g id="taxes" transform="translate(-34.141 512)">
    <path id="Path_354" data-name="Path 354" d="M41.428-511.874a.928.928,0,0,0-.5.89,10.928,10.928,0,0,0,.954,1.93c.506.931.925,1.718.925,1.746a.829.829,0,0,1-.253.236,2.431,2.431,0,0,0-.741.9,2.443,2.443,0,0,0-.276,1.252,2.84,2.84,0,0,0,.322,1.315c.029.075.017.1-.046.1a12.671,12.671,0,0,0-2.189,1.172,9.536,9.536,0,0,0-3.538,4.785c-.345,1.034-1.907,9.139-1.942,10.07a4.465,4.465,0,0,0,1.275,3.378,4.625,4.625,0,0,0,2.47,1.4,13.6,13.6,0,0,0,2.694.109c2.378,0,2.418-.006,2.7-.339a.907.907,0,0,0,0-1.218c-.281-.333-.333-.339-2.591-.339-1.149,0-2.2-.023-2.367-.057a2.919,2.919,0,0,1-1.769-1.143,2.455,2.455,0,0,1-.511-1.471c-.023-.483.029-.8.816-4.883.505-2.648.908-4.561,1.005-4.865a7.725,7.725,0,0,1,3.791-4.435,7.5,7.5,0,0,1,5.446-.626,2.569,2.569,0,0,0,.827.115.932.932,0,0,0,.684-1.356,1.057,1.057,0,0,0-.327-.362c-.144-.086-.19-.144-.161-.213a3.22,3.22,0,0,0,.253-1.143,2.5,2.5,0,0,0-.862-1.97l-.437-.437.931-1.706c.517-.942.942-1.781.954-1.861a1.014,1.014,0,0,0-.437-.954c-.155-.121-.224-.121-3.5-.138L41.686-512Zm4.728,2.269c-1.011,1.861-1.022,1.884-1.2,1.9-.161.017-.184-.017-.8-1.137-.345-.638-.638-1.183-.649-1.212a9.314,9.314,0,0,1,1.453-.052h1.471Zm-.08,3.952a.821.821,0,0,1,.092,1.35c-.149.138-.178.144-1.149.161-.827.017-1.028.006-1.178-.075a.852.852,0,0,1-.075-1.4c.236-.167.31-.178,1.252-.167C45.765-505.767,45.908-505.75,46.075-505.653Z" transform="translate(0)" fill="#5f6979"/>
    <path id="Path_355" data-name="Path 355" d="M170.877-315.808A9.155,9.155,0,0,0,163-308.645a9.773,9.773,0,0,0,0,3.7,9.174,9.174,0,0,0,5.222,6.451,8.235,8.235,0,0,0,3.659.741,7.892,7.892,0,0,0,2.912-.46,9.1,9.1,0,0,0,5.675-5.7,7.148,7.148,0,0,0,.425-2.884,7.148,7.148,0,0,0-.425-2.884A9.11,9.11,0,0,0,170.877-315.808Zm2.591,2.028a7.232,7.232,0,0,1,5.124,4.486,7.465,7.465,0,0,1,.356,3.653,7.171,7.171,0,0,1-9.57,5.566,7.258,7.258,0,0,1-4.32-4.515,7.438,7.438,0,0,1,.052-4.572A7.276,7.276,0,0,1,171-313.918,8.789,8.789,0,0,1,173.468-313.78Z" transform="translate(-121.292 -184.87)" fill="#5f6979"/>
    <path id="Path_356" data-name="Path 356" d="M265.873-220.772a1.184,1.184,0,0,0-.873,1.2,1.238,1.238,0,0,0,2.361.523,1.508,1.508,0,0,0,.029-1.028,1.389,1.389,0,0,0-.8-.7A.869.869,0,0,0,265.873-220.772Z" transform="translate(-217.598 -274.425)" fill="#5f6979"/>
    <path id="Path_357" data-name="Path 357" d="M268.353-214.87c-.092.057-1.287,1.229-2.654,2.6-2.194,2.212-2.482,2.516-2.522,2.711a1,1,0,0,0,.528,1.051,1.109,1.109,0,0,0,.816,0c.086-.046,1.27-1.206,2.637-2.573,2.171-2.177,2.487-2.516,2.545-2.729a.908.908,0,0,0-.448-1.04A.934.934,0,0,0,268.353-214.87Z" transform="translate(-215.867 -279.96)" fill="#5f6979"/>
    <path id="Path_358" data-name="Path 358" d="M333.154-138.782a1.336,1.336,0,0,0-.73,1.344,1.219,1.219,0,0,0,1.264,1.045,1.248,1.248,0,0,0,.643-2.3A1.348,1.348,0,0,0,333.154-138.782Z" transform="translate(-281.133 -351.689)" fill="#5f6979"/>
  </g>
</svg>
